<mxfile host="65bd71144e">
    <diagram id="NDvJAJGpe4w62B9Y8Wvt" name="Page-1">
        <mxGraphModel dx="771" dy="656" grid="0" gridSize="10" guides="1" tooltips="1" connect="1" arrows="1" fold="1" page="1" pageScale="1" pageWidth="1100" pageHeight="850" background="#ffffff" math="0" shadow="0">
            <root>
                <mxCell id="0"/>
                <mxCell id="1" parent="0"/>
                <mxCell id="127" style="edgeStyle=none;html=1;exitX=0;exitY=0.5;exitDx=0;exitDy=0;strokeColor=#000000;opacity=50;dashed=1;" parent="1" edge="1">
                    <mxGeometry relative="1" as="geometry">
                        <mxPoint x="545.3300000000002" y="696.9061278298027" as="targetPoint"/>
                    </mxGeometry>
                </mxCell>
                <mxCell id="146" value="" style="edgeStyle=none;html=1;fontSize=7;fontColor=#FFFFFF;" parent="1" edge="1">
                    <mxGeometry relative="1" as="geometry">
                        <mxPoint x="545.3300000000002" y="696.9693611086384" as="targetPoint"/>
                    </mxGeometry>
                </mxCell>
                <mxCell id="243" value="&lt;font style=&quot;font-size: 12px;&quot;&gt;On-premises (Azure)&lt;br style=&quot;&quot;&gt;10.100.0.0/24&lt;br&gt;&lt;/font&gt;" style="whiteSpace=wrap;html=1;labelBackgroundColor=none;fontFamily=Verdana;fontSize=15;labelPosition=center;verticalLabelPosition=bottom;align=center;verticalAlign=top;spacing=0;spacingRight=0;" parent="1" vertex="1">
                    <mxGeometry x="87" y="195" width="360" height="197" as="geometry"/>
                </mxCell>
                <mxCell id="244" value="Subnet1" style="whiteSpace=wrap;html=1;labelBackgroundColor=none;fontFamily=Verdana;fillColor=#f5f5f5;fontColor=#333333;strokeColor=none;fontSize=10;labelPosition=center;verticalLabelPosition=top;align=center;verticalAlign=bottom;" parent="1" vertex="1">
                    <mxGeometry x="94" y="224" width="103.69" height="156" as="geometry"/>
                </mxCell>
                <mxCell id="245" value="az-hub-vnet&lt;br&gt;10.0.0.0/24" style="whiteSpace=wrap;html=1;fillColor=none;strokeColor=#6c8ebf;dashed=1;labelPosition=center;verticalLabelPosition=top;align=center;verticalAlign=bottom;" parent="1" vertex="1">
                    <mxGeometry x="631" y="228" width="465" height="316" as="geometry"/>
                </mxCell>
                <mxCell id="246" value="" style="aspect=fixed;html=1;points=[];align=center;image;fontSize=12;image=img/lib/azure2/networking/Virtual_Networks.svg;dashed=1;" parent="1" vertex="1">
                    <mxGeometry x="1021.9985556915544" y="229" width="21.64138017356475" height="12.920226969292392" as="geometry"/>
                </mxCell>
                <mxCell id="247" value="GatewaySubnet" style="whiteSpace=wrap;html=1;labelBackgroundColor=none;fontFamily=Verdana;fillColor=#f5f5f5;fontColor=#333333;strokeColor=none;fontSize=10;labelPosition=center;verticalLabelPosition=top;align=center;verticalAlign=bottom;spacingLeft=0;spacingBottom=0;spacingRight=0;spacing=2;" parent="1" vertex="1">
                    <mxGeometry x="644" y="246" width="211" height="93" as="geometry"/>
                </mxCell>
                <mxCell id="248" value="Trusted" style="whiteSpace=wrap;html=1;labelBackgroundColor=none;fontFamily=Verdana;fillColor=#f5f5f5;fontColor=#333333;strokeColor=none;fontSize=10;labelPosition=center;verticalLabelPosition=bottom;align=center;verticalAlign=top;" parent="1" vertex="1">
                    <mxGeometry x="861" y="341" width="230" height="180" as="geometry"/>
                </mxCell>
                <mxCell id="249" value="Subnet1" style="whiteSpace=wrap;html=1;labelBackgroundColor=none;fontFamily=Verdana;fillColor=#f5f5f5;fontColor=#333333;strokeColor=none;fontSize=10;labelPosition=center;verticalLabelPosition=top;align=center;verticalAlign=bottom;" parent="1" vertex="1">
                    <mxGeometry x="861" y="247" width="230" height="90" as="geometry"/>
                </mxCell>
                <mxCell id="251" value="MSEE &lt;br&gt;AS 12076" style="aspect=fixed;html=1;points=[];align=center;image;fontSize=12;image=img/lib/azure2/networking/ExpressRoute_Circuits.svg;labelBackgroundColor=none;fontFamily=Verdana;fillColor=default;labelPosition=center;verticalLabelPosition=bottom;verticalAlign=top;" parent="1" vertex="1">
                    <mxGeometry x="515" y="258.81" width="43.75" height="40" as="geometry"/>
                </mxCell>
                <mxCell id="252" style="edgeStyle=none;html=1;entryX=0.25;entryY=0;entryDx=0;entryDy=0;fontFamily=Verdana;fontSize=10;endArrow=none;endFill=0;opacity=50;exitX=0.582;exitY=1.007;exitDx=0;exitDy=0;exitPerimeter=0;" parent="1" source="253" target="245" edge="1">
                    <mxGeometry relative="1" as="geometry">
                        <mxPoint x="232" y="183" as="sourcePoint"/>
                    </mxGeometry>
                </mxCell>
                <mxCell id="253" value="az-spk1-vnet&lt;br&gt;10.0.1.0/24" style="whiteSpace=wrap;html=1;fillColor=none;strokeColor=#6c8ebf;dashed=1;labelBackgroundColor=none;fontFamily=Verdana;fontSize=10;labelPosition=center;verticalLabelPosition=top;align=center;verticalAlign=bottom;" parent="1" vertex="1">
                    <mxGeometry x="626" y="55.81" width="140" height="116" as="geometry"/>
                </mxCell>
                <mxCell id="254" value="" style="aspect=fixed;html=1;points=[];align=center;image;fontSize=12;image=img/lib/azure2/networking/Virtual_Networks.svg;dashed=1;labelBackgroundColor=none;fontFamily=Verdana;fillColor=default;" parent="1" vertex="1">
                    <mxGeometry x="742" y="59" width="20.1" height="12" as="geometry"/>
                </mxCell>
                <mxCell id="255" value="Subnet" style="whiteSpace=wrap;html=1;labelBackgroundColor=none;fontFamily=Verdana;fillColor=#f5f5f5;fontColor=#333333;strokeColor=none;fontSize=10;labelPosition=center;verticalLabelPosition=top;align=center;verticalAlign=bottom;" parent="1" vertex="1">
                    <mxGeometry x="636" y="71" width="120" height="94.79" as="geometry"/>
                </mxCell>
                <mxCell id="256" value="az-spk1-lxvm&lt;br&gt;10.0.1.4" style="aspect=fixed;html=1;points=[];align=center;image;fontSize=12;image=img/lib/azure2/compute/Virtual_Machine.svg;labelBackgroundColor=none;fontFamily=Verdana;fillColor=default;" parent="1" vertex="1">
                    <mxGeometry x="678.9612999999999" y="82.99988651535381" width="34.086598798397866" height="31.616555407209614" as="geometry"/>
                </mxCell>
                <mxCell id="257" style="edgeStyle=none;html=1;exitX=0.5;exitY=1;exitDx=0;exitDy=0;entryX=0.75;entryY=0;entryDx=0;entryDy=0;fontFamily=Verdana;fontSize=10;endArrow=none;endFill=0;opacity=50;" parent="1" source="258" target="245" edge="1">
                    <mxGeometry relative="1" as="geometry"/>
                </mxCell>
                <mxCell id="258" value="az-spk2-vnet&lt;br&gt;10.0.2.0/24" style="whiteSpace=wrap;html=1;fillColor=none;strokeColor=#6c8ebf;dashed=1;labelBackgroundColor=none;fontFamily=Verdana;fontSize=10;labelPosition=center;verticalLabelPosition=top;align=center;verticalAlign=bottom;" parent="1" vertex="1">
                    <mxGeometry x="932" y="55.81" width="140" height="116" as="geometry"/>
                </mxCell>
                <mxCell id="259" value="" style="aspect=fixed;html=1;points=[];align=center;image;fontSize=12;image=img/lib/azure2/networking/Virtual_Networks.svg;dashed=1;labelBackgroundColor=none;fontFamily=Verdana;fillColor=default;" parent="1" vertex="1">
                    <mxGeometry x="1047.1399999999999" y="59" width="20.1" height="12" as="geometry"/>
                </mxCell>
                <mxCell id="260" value="Subnet" style="whiteSpace=wrap;html=1;labelBackgroundColor=none;fontFamily=Verdana;fillColor=#f5f5f5;fontColor=#333333;strokeColor=none;fontSize=10;labelPosition=center;verticalLabelPosition=top;align=center;verticalAlign=bottom;" parent="1" vertex="1">
                    <mxGeometry x="942" y="73.61000000000001" width="120" height="94.79" as="geometry"/>
                </mxCell>
                <mxCell id="261" value="Trusted" style="whiteSpace=wrap;html=1;labelBackgroundColor=none;fontFamily=Verdana;fillColor=#f5f5f5;fontColor=#333333;strokeColor=none;fontSize=10;labelPosition=center;verticalLabelPosition=top;align=center;verticalAlign=bottom;" parent="1" vertex="1">
                    <mxGeometry x="202" y="226" width="120.78" height="77" as="geometry"/>
                </mxCell>
                <mxCell id="262" value="&lt;span style=&quot;background-color: rgb(255, 255, 255); font-size: 9px;&quot;&gt;&lt;font color=&quot;#ff0000&quot;&gt;&lt;font style=&quot;font-size: 9px;&quot;&gt;Router&lt;br&gt;&lt;/font&gt;&lt;font style=&quot;font-size: 9px;&quot;&gt;AS 65510&lt;/font&gt;&lt;/font&gt;&lt;br style=&quot;font-size: 9px;&quot;&gt;&lt;/span&gt;" style="aspect=fixed;html=1;points=[];align=center;image;fontSize=9;image=img/lib/azure2/compute/Virtual_Machine.svg;labelBackgroundColor=none;fontFamily=Verdana;fillColor=default;labelPosition=center;verticalLabelPosition=middle;verticalAlign=middle;fontColor=#FF3333;spacingBottom=11;" parent="1" vertex="1">
                    <mxGeometry x="246.24" y="284" width="50" height="46.39" as="geometry"/>
                </mxCell>
                <mxCell id="263" value="&lt;span style=&quot;font-weight: normal;&quot;&gt;branch-vm1&lt;br&gt;10.100.0.100&lt;/span&gt;" style="aspect=fixed;html=1;points=[];align=center;image;fontSize=12;image=img/lib/azure2/compute/Virtual_Machine.svg;labelBackgroundColor=none;fontFamily=Verdana;fillColor=default;fontStyle=1" parent="1" vertex="1">
                    <mxGeometry x="129.00129999999996" y="262.99988651535386" width="34.086598798397866" height="31.616555407209614" as="geometry"/>
                </mxCell>
                <mxCell id="264" style="edgeStyle=none;html=1;strokeColor=#000000;strokeWidth=1;fontFamily=Verdana;fontSize=8;fontColor=#000000;endArrow=none;endFill=0;opacity=50;" parent="1" source="265" target="262" edge="1">
                    <mxGeometry relative="1" as="geometry"/>
                </mxCell>
                <mxCell id="265" value="10.100.0.20" style="aspect=fixed;html=1;points=[];align=center;image;fontSize=8;image=img/lib/azure2/networking/Network_Interfaces.svg;labelBackgroundColor=none;fontFamily=Verdana;fontColor=#000000;fillColor=none;labelPosition=center;verticalLabelPosition=top;verticalAlign=bottom;fontStyle=1;spacing=4;" parent="1" vertex="1">
                    <mxGeometry x="259.6" y="254.5" width="24.4" height="21.53" as="geometry"/>
                </mxCell>
                <mxCell id="266" style="edgeStyle=none;html=1;strokeColor=#000000;strokeWidth=1;fontFamily=Verdana;fontSize=8;fontColor=#000000;endArrow=none;endFill=0;opacity=50;" parent="1" source="267" target="262" edge="1">
                    <mxGeometry relative="1" as="geometry"/>
                </mxCell>
                <mxCell id="267" value="11.11.11.11/32" style="aspect=fixed;html=1;points=[];align=center;image;fontSize=8;image=img/lib/azure2/networking/Network_Interfaces.svg;labelBackgroundColor=none;fontFamily=Verdana;fontColor=#000000;fillColor=none;labelPosition=center;verticalLabelPosition=bottom;verticalAlign=top;fontStyle=1;spacing=4;" parent="1" vertex="1">
                    <mxGeometry x="258.24" y="343" width="22.67" height="20" as="geometry"/>
                </mxCell>
                <mxCell id="268" value="az-spk2-lxvm&lt;br&gt;10.0.2.4" style="aspect=fixed;html=1;points=[];align=center;image;fontSize=12;image=img/lib/azure2/compute/Virtual_Machine.svg;labelBackgroundColor=none;fontFamily=Verdana;fillColor=default;" parent="1" vertex="1">
                    <mxGeometry x="982.0013" y="82.99988651535381" width="34.086598798397866" height="31.616555407209614" as="geometry"/>
                </mxCell>
                <mxCell id="269" value="az-hub-lxvm&lt;br&gt;10.0.0.4" style="aspect=fixed;html=1;points=[];align=center;image;fontSize=12;image=img/lib/azure2/compute/Virtual_Machine.svg;labelBackgroundColor=none;fontFamily=Verdana;fillColor=default;" parent="1" vertex="1">
                    <mxGeometry x="927.0012999999999" y="259.9998865153538" width="34.086598798397866" height="31.616555407209614" as="geometry"/>
                </mxCell>
                <mxCell id="270" value="az-hub-ergw" style="aspect=fixed;html=1;points=[];align=center;image;fontSize=12;image=img/lib/azure2/networking/Virtual_Network_Gateways.svg;glass=0;dashed=1;dashPattern=8 8;strokeColor=#E6E6E6;fontColor=#000000;fillColor=#CCCCCC;rounded=0;sketch=1;hachureGap=4;jiggle=2;curveFitting=1;fontFamily=Verdana;labelBackgroundColor=#f5f5f5;fontStyle=0" parent="1" vertex="1">
                    <mxGeometry x="688.9998245614036" y="260.26338841160657" width="27.943925233644855" height="37.081588785046726" as="geometry"/>
                </mxCell>
                <mxCell id="271" value="Untrusted" style="whiteSpace=wrap;html=1;labelBackgroundColor=none;fontFamily=Verdana;fillColor=#f5f5f5;fontColor=#333333;strokeColor=none;fontSize=10;labelPosition=center;verticalLabelPosition=bottom;align=center;verticalAlign=top;" parent="1" vertex="1">
                    <mxGeometry x="642" y="343" width="213" height="179" as="geometry"/>
                </mxCell>
                <mxCell id="272" value="az-hub-nva1&lt;br&gt;AS 65004" style="aspect=fixed;html=1;points=[];align=center;image;fontSize=12;image=img/lib/azure2/compute/Virtual_Machine.svg;labelBackgroundColor=none;fontFamily=Verdana;fillColor=default;" parent="1" vertex="1">
                    <mxGeometry x="838" y="352.16999999999996" width="46" height="42.67" as="geometry"/>
                </mxCell>
                <mxCell id="273" value="az-hub-nvalb&lt;br&gt;10.0.0.86" style="aspect=fixed;html=1;points=[];align=center;image;fontSize=12;image=img/lib/azure2/networking/Application_Gateways.svg;labelBackgroundColor=none;" parent="1" vertex="1">
                    <mxGeometry x="1007" y="392" width="48" height="48" as="geometry"/>
                </mxCell>
                <mxCell id="274" style="edgeStyle=none;html=1;dashed=1;dashPattern=1 1;endArrow=none;endFill=0;" parent="1" source="305" target="277" edge="1">
                    <mxGeometry relative="1" as="geometry"/>
                </mxCell>
                <mxCell id="275" value="10.0.0.84" style="aspect=fixed;html=1;points=[];align=center;image;fontSize=12;image=img/lib/azure2/networking/Network_Interfaces.svg;rotation=0;" parent="1" vertex="1">
                    <mxGeometry x="934" y="359" width="32.87" height="29" as="geometry"/>
                </mxCell>
                <mxCell id="276" style="edgeStyle=none;html=1;dashed=1;dashPattern=1 1;endArrow=none;endFill=0;entryX=0.026;entryY=0.511;entryDx=0;entryDy=0;entryPerimeter=0;" parent="1" source="277" target="273" edge="1">
                    <mxGeometry relative="1" as="geometry"/>
                </mxCell>
                <mxCell id="277" value="10.0.0.85" style="aspect=fixed;html=1;points=[];align=center;image;fontSize=12;image=img/lib/azure2/networking/Network_Interfaces.svg;rotation=0;" parent="1" vertex="1">
                    <mxGeometry x="932" y="448.75" width="32.87" height="29" as="geometry"/>
                </mxCell>
                <mxCell id="278" style="edgeStyle=none;html=1;endArrow=none;endFill=0;dashed=1;dashPattern=1 1;" parent="1" source="272" target="275" edge="1">
                    <mxGeometry relative="1" as="geometry"/>
                </mxCell>
                <mxCell id="279" style="edgeStyle=none;html=1;dashed=1;dashPattern=1 1;endArrow=none;endFill=0;exitX=0.009;exitY=0.506;exitDx=0;exitDy=0;exitPerimeter=0;" parent="1" source="273" target="275" edge="1">
                    <mxGeometry relative="1" as="geometry"/>
                </mxCell>
                <mxCell id="280" value="10.0.0.68" style="aspect=fixed;html=1;points=[];align=center;image;fontSize=12;image=img/lib/azure2/networking/Network_Interfaces.svg;rotation=0;" parent="1" vertex="1">
                    <mxGeometry x="765" y="359" width="32.87" height="29" as="geometry"/>
                </mxCell>
                <mxCell id="281" style="edgeStyle=none;html=1;dashed=1;dashPattern=1 1;endArrow=none;endFill=0;" parent="1" source="282" target="305" edge="1">
                    <mxGeometry relative="1" as="geometry"/>
                </mxCell>
                <mxCell id="282" value="10.0.0.69" style="aspect=fixed;html=1;points=[];align=center;image;fontSize=12;image=img/lib/azure2/networking/Network_Interfaces.svg;rotation=0;" parent="1" vertex="1">
                    <mxGeometry x="766" y="448" width="32.87" height="29" as="geometry"/>
                </mxCell>
                <mxCell id="283" style="edgeStyle=none;html=1;dashed=1;dashPattern=1 1;endArrow=none;endFill=0;" parent="1" source="272" target="280" edge="1">
                    <mxGeometry relative="1" as="geometry"/>
                </mxCell>
                <mxCell id="284" style="edgeStyle=none;html=1;dashed=1;dashPattern=1 1;endArrow=none;endFill=0;" parent="1" source="286" target="282" edge="1">
                    <mxGeometry relative="1" as="geometry"/>
                </mxCell>
                <mxCell id="285" style="edgeStyle=none;html=1;entryX=1;entryY=0.5;entryDx=0;entryDy=0;dashed=1;dashPattern=1 1;endArrow=none;endFill=0;" parent="1" source="286" target="290" edge="1">
                    <mxGeometry relative="1" as="geometry"/>
                </mxCell>
                <mxCell id="286" value="Public IP&lt;br&gt;20.225.98.188" style="aspect=fixed;html=1;points=[];align=center;image;fontSize=12;image=img/lib/azure2/networking/Public_IP_Addresses.svg;labelBackgroundColor=none;" parent="1" vertex="1">
                    <mxGeometry x="683" y="452" width="28.13" height="22.5" as="geometry"/>
                </mxCell>
                <mxCell id="287" style="edgeStyle=none;html=1;entryX=0.026;entryY=0.563;entryDx=0;entryDy=0;entryPerimeter=0;dashed=1;dashPattern=1 1;endArrow=none;endFill=0;" parent="1" source="289" target="280" edge="1">
                    <mxGeometry relative="1" as="geometry"/>
                </mxCell>
                <mxCell id="288" style="edgeStyle=none;html=1;entryX=1;entryY=0.5;entryDx=0;entryDy=0;dashed=1;dashPattern=1 1;endArrow=none;endFill=0;" parent="1" source="289" target="290" edge="1">
                    <mxGeometry relative="1" as="geometry"/>
                </mxCell>
                <mxCell id="289" value="Public IP&lt;br&gt;20.225.200.19" style="aspect=fixed;html=1;points=[];align=center;image;fontSize=12;image=img/lib/azure2/networking/Public_IP_Addresses.svg;labelBackgroundColor=none;" parent="1" vertex="1">
                    <mxGeometry x="683" y="364" width="30" height="24" as="geometry"/>
                </mxCell>
                <mxCell id="290" value="Internet" style="aspect=fixed;perimeter=ellipsePerimeter;html=1;align=center;shadow=0;dashed=0;spacingTop=3;image;image=img/lib/active_directory/internet_cloud.svg;labelBackgroundColor=none;imageBackground=none;" parent="1" vertex="1">
                    <mxGeometry x="509" y="415" width="69.84" height="44" as="geometry"/>
                </mxCell>
                <mxCell id="291" style="edgeStyle=none;html=1;dashed=1;dashPattern=1 1;fontColor=#FF0000;endArrow=none;endFill=0;" parent="1" source="251" target="270" edge="1">
                    <mxGeometry relative="1" as="geometry"/>
                </mxCell>
                <mxCell id="292" value="GatewaySubnet" style="whiteSpace=wrap;html=1;labelBackgroundColor=none;fontFamily=Verdana;fillColor=#f5f5f5;fontColor=#333333;strokeColor=none;fontSize=10;labelPosition=center;verticalLabelPosition=top;align=center;verticalAlign=bottom;" parent="1" vertex="1">
                    <mxGeometry x="327" y="227" width="103.69" height="156" as="geometry"/>
                </mxCell>
                <mxCell id="293" value="On-prem-ERGW" style="aspect=fixed;html=1;points=[];align=center;image;fontSize=12;image=img/lib/azure2/networking/Virtual_Network_Gateways.svg;glass=0;dashed=1;dashPattern=8 8;strokeColor=#E6E6E6;fontColor=#000000;fillColor=#CCCCCC;rounded=0;sketch=1;hachureGap=4;jiggle=2;curveFitting=1;fontFamily=Verdana;labelBackgroundColor=#f5f5f5;fontStyle=0" parent="1" vertex="1">
                    <mxGeometry x="366.99982456140356" y="260.0033884116066" width="27.943925233644855" height="37.081588785046726" as="geometry"/>
                </mxCell>
                <mxCell id="294" style="edgeStyle=none;html=1;exitX=0.5;exitY=1;exitDx=0;exitDy=0;dashed=1;dashPattern=1 1;strokeColor=#000000;fontColor=none;endArrow=none;endFill=0;" parent="1" source="295" target="243" edge="1">
                    <mxGeometry relative="1" as="geometry"/>
                </mxCell>
                <mxCell id="295" value="150.0.0.0/27" style="whiteSpace=wrap;html=1;labelBackgroundColor=none;fontFamily=Verdana;fillColor=#f5f5f5;fontColor=#333333;strokeColor=none;fontSize=10;labelPosition=center;verticalLabelPosition=top;align=center;verticalAlign=bottom;" parent="1" vertex="1">
                    <mxGeometry x="191" y="47" width="146" height="107" as="geometry"/>
                </mxCell>
                <mxCell id="296" style="edgeStyle=none;html=1;dashed=1;dashPattern=1 1;strokeColor=#000000;fontColor=none;endArrow=none;endFill=0;" parent="1" source="297" edge="1">
                    <mxGeometry relative="1" as="geometry">
                        <mxPoint x="267" y="194" as="targetPoint"/>
                    </mxGeometry>
                </mxCell>
                <mxCell id="297" value="150.0.0.8/27" style="whiteSpace=wrap;html=1;labelBackgroundColor=none;fontFamily=Verdana;fillColor=#f5f5f5;fontColor=#333333;strokeColor=none;fontSize=10;labelPosition=center;verticalLabelPosition=top;align=center;verticalAlign=bottom;" parent="1" vertex="1">
                    <mxGeometry x="350" y="47" width="146" height="107" as="geometry"/>
                </mxCell>
                <mxCell id="298" value="branch-spk-vm2&lt;br style=&quot;font-size: 10px;&quot;&gt;150.0.0.4" style="aspect=fixed;html=1;points=[];align=center;image;fontSize=10;image=img/lib/azure2/compute/Virtual_Machine.svg;labelBackgroundColor=none;fontFamily=Verdana;fillColor=default;" parent="1" vertex="1">
                    <mxGeometry x="250.0012999999999" y="67.99988651535381" width="34.086598798397866" height="31.616555407209614" as="geometry"/>
                </mxCell>
                <mxCell id="301" value="branch-spk-vm3&lt;br style=&quot;font-size: 10px;&quot;&gt;150.0.0.12" style="aspect=fixed;html=1;points=[];align=center;image;fontSize=10;image=img/lib/azure2/compute/Virtual_Machine.svg;labelBackgroundColor=none;fontFamily=Verdana;fillColor=default;" parent="1" vertex="1">
                    <mxGeometry x="404.34000000000003" y="65" width="37.32" height="34.62" as="geometry"/>
                </mxCell>
                <mxCell id="302" style="edgeStyle=none;html=1;entryX=0.5;entryY=0;entryDx=0;entryDy=0;dashed=1;dashPattern=1 1;strokeColor=#000000;fontSize=10;fontColor=none;endArrow=none;endFill=0;" parent="1" source="303" target="243" edge="1">
                    <mxGeometry relative="1" as="geometry"/>
                </mxCell>
                <mxCell id="303" value="10.110.0.0/27" style="whiteSpace=wrap;html=1;labelBackgroundColor=none;fontFamily=Verdana;fillColor=#f5f5f5;fontColor=#333333;strokeColor=none;fontSize=10;labelPosition=center;verticalLabelPosition=top;align=center;verticalAlign=bottom;" parent="1" vertex="1">
                    <mxGeometry x="34" y="47" width="146" height="107" as="geometry"/>
                </mxCell>
                <mxCell id="304" value="branch-spk-vm1&lt;br style=&quot;font-size: 10px;&quot;&gt;10.110.0.4" style="aspect=fixed;html=1;points=[];align=center;image;fontSize=10;image=img/lib/azure2/compute/Virtual_Machine.svg;labelBackgroundColor=none;fontFamily=Verdana;fillColor=default;imageBackground=default;" parent="1" vertex="1">
                    <mxGeometry x="93.0012999999999" y="67.99988651535381" width="34.086598798397866" height="31.616555407209614" as="geometry"/>
                </mxCell>
                <mxCell id="305" value="az-hub-nva2&lt;br&gt;AS 65004" style="aspect=fixed;html=1;points=[];align=center;image;fontSize=12;image=img/lib/azure2/compute/Virtual_Machine.svg;labelBackgroundColor=none;fontFamily=Verdana;fillColor=default;" parent="1" vertex="1">
                    <mxGeometry x="840.52" y="444.25" width="40.97" height="38" as="geometry"/>
                </mxCell>
                <mxCell id="306" value="&lt;font style=&quot;font-size: 8px;&quot;&gt;0/0 -&amp;gt; NVALB&lt;br&gt;&lt;b&gt;BGP Propagation off&lt;/b&gt;&lt;br&gt;&lt;/font&gt;" style="aspect=fixed;html=1;points=[];align=center;image;fontSize=12;image=img/lib/azure2/networking/Route_Tables.svg;labelBackgroundColor=none;fontFamily=Verdana;fontColor=#000000;fillColor=none;spacing=0;" parent="1" vertex="1">
                    <mxGeometry x="1029.0000000000002" y="254.49999999999997" width="20.65" height="20" as="geometry"/>
                </mxCell>
                <mxCell id="307" style="edgeStyle=none;html=1;entryX=1;entryY=0.5;entryDx=0;entryDy=0;dashed=1;dashPattern=1 1;strokeColor=#000000;fontSize=10;fontColor=none;endArrow=none;endFill=0;" parent="1" source="309" target="255" edge="1">
                    <mxGeometry relative="1" as="geometry"/>
                </mxCell>
                <mxCell id="308" style="edgeStyle=none;html=1;entryX=0;entryY=0.5;entryDx=0;entryDy=0;dashed=1;dashPattern=1 1;strokeColor=#000000;fontSize=10;fontColor=none;endArrow=none;endFill=0;" parent="1" source="309" target="260" edge="1">
                    <mxGeometry relative="1" as="geometry"/>
                </mxCell>
                <mxCell id="309" value="&lt;font style=&quot;font-size: 8px;&quot;&gt;0/0 -&amp;gt; NVALB&lt;br&gt;&lt;b&gt;BGP Propagation off&lt;/b&gt;&lt;br&gt;&lt;/font&gt;" style="aspect=fixed;html=1;points=[];align=center;image;fontSize=12;image=img/lib/azure2/networking/Route_Tables.svg;labelBackgroundColor=none;fontFamily=Verdana;fontColor=#000000;fillColor=none;spacing=-8;" parent="1" vertex="1">
                    <mxGeometry x="838" y="130" width="20.65" height="20" as="geometry"/>
                </mxCell>
                <mxCell id="250" value="" style="edgeStyle=none;html=1;dashed=1;dashPattern=1 1;fontColor=#FF0000;endArrow=none;endFill=0;" parent="1" source="251" target="293" edge="1">
                    <mxGeometry relative="1" as="geometry">
                        <mxPoint x="458" y="299" as="sourcePoint"/>
                        <mxPoint x="393" y="297" as="targetPoint"/>
                    </mxGeometry>
                </mxCell>
                <mxCell id="346" value="VNETs -&amp;gt; NVALB&lt;br&gt;&lt;b&gt;BGP Propagation on&lt;/b&gt;" style="aspect=fixed;html=1;points=[];align=center;image;fontSize=8;image=img/lib/azure2/networking/Route_Tables.svg;labelBackgroundColor=none;fontFamily=Verdana;fontColor=#000000;fillColor=none;spacing=0;" parent="1" vertex="1">
                    <mxGeometry x="784.0000000000001" y="252" width="20.65" height="20" as="geometry"/>
                </mxCell>
                <mxCell id="355" style="edgeStyle=none;html=1;fontSize=12;fontColor=#000000;endArrow=classic;endFill=1;opacity=50;dashed=1;" parent="1" source="348" edge="1">
                    <mxGeometry relative="1" as="geometry">
                        <mxPoint x="749" y="544" as="targetPoint"/>
                    </mxGeometry>
                </mxCell>
                <mxCell id="348" value="0/0 &amp;gt; Internet&lt;br&gt;BGP Propagation off" style="aspect=fixed;html=1;points=[];align=center;image;fontSize=8;image=img/lib/azure2/networking/Route_Tables.svg;labelBackgroundColor=none;fontFamily=Verdana;fontColor=#000000;fillColor=none;spacing=0;fontStyle=1" parent="1" vertex="1">
                    <mxGeometry x="739.1700000000002" y="575" width="20.65" height="20" as="geometry"/>
                </mxCell>
                <mxCell id="327" value="BGP" parent="0"/>
                <mxCell id="328" style="edgeStyle=none;html=1;dashed=1;dashPattern=1 1;fontColor=none;endArrow=none;endFill=0;noLabel=1;strokeColor=#FF8000;" parent="327" edge="1">
                    <mxGeometry relative="1" as="geometry">
                        <mxPoint x="301.00000000000017" y="354.0026337383619" as="sourcePoint"/>
                        <mxPoint x="953.0899999999998" y="385.57" as="targetPoint"/>
                        <Array as="points">
                            <mxPoint x="396.91" y="388.79"/>
                            <mxPoint x="396.91" y="562.79"/>
                            <mxPoint x="955.0899999999999" y="562.5699999999999"/>
                        </Array>
                    </mxGeometry>
                </mxCell>
                <mxCell id="329" value="&amp;nbsp;BGP Multihop" style="edgeLabel;html=1;align=center;verticalAlign=middle;resizable=0;points=[];fontColor=#FF8000;fontStyle=1" parent="328" vertex="1" connectable="0">
                    <mxGeometry x="-0.1334" y="1" relative="1" as="geometry">
                        <mxPoint x="97" y="14" as="offset"/>
                    </mxGeometry>
                </mxCell>
                <mxCell id="331" style="edgeStyle=none;html=1;dashed=1;dashPattern=1 1;strokeColor=#FF8000;fontSize=10;fontColor=#000000;endArrow=classic;endFill=1;" parent="327" source="330" edge="1">
                    <mxGeometry relative="1" as="geometry">
                        <mxPoint x="444" y="546" as="targetPoint"/>
                    </mxGeometry>
                </mxCell>
                <mxCell id="330" value="Advertise 15K routes" style="text;strokeColor=none;align=center;fillColor=none;html=1;verticalAlign=middle;whiteSpace=wrap;rounded=0;dashed=1;dashPattern=1 1;labelBackgroundColor=none;fontSize=12;fontColor=#FF8000;fontStyle=1" parent="327" vertex="1">
                    <mxGeometry x="405" y="481" width="78" height="30" as="geometry"/>
                </mxCell>
                <mxCell id="357" style="edgeStyle=none;html=1;" edge="1" parent="327" source="356" target="251">
                    <mxGeometry relative="1" as="geometry"/>
                </mxCell>
                <mxCell id="356" value="ER 10K - On-premises to Azure" style="text;html=1;align=center;verticalAlign=middle;resizable=0;points=[];autosize=1;strokeColor=none;fillColor=none;" vertex="1" parent="327">
                    <mxGeometry x="455" y="193" width="186" height="26" as="geometry"/>
                </mxCell>
                <mxCell id="320" value="Config" parent="0"/>
                <mxCell id="326" style="edgeStyle=none;html=1;entryX=0.5;entryY=0;entryDx=0;entryDy=0;dashed=1;dashPattern=1 1;strokeColor=#000000;fontSize=10;fontColor=#000000;endArrow=none;endFill=0;" parent="320" source="324" target="325" edge="1">
                    <mxGeometry relative="1" as="geometry"/>
                </mxCell>
                <mxCell id="324" value="" style="whiteSpace=wrap;html=1;labelBackgroundColor=none;fontSize=10;fontColor=#000000;fillColor=none;dashed=1;dashPattern=1 1;" parent="320" vertex="1">
                    <mxGeometry x="813" y="345" width="89" height="186" as="geometry"/>
                </mxCell>
                <mxCell id="325" value="Static Route Table:&lt;br&gt;RFC 1918 and 11.11.11.11/32 Next Hop Trusted Subnet Gateway (10.0.0.81)" style="whiteSpace=wrap;html=1;dashed=1;dashPattern=1 1;labelBackgroundColor=none;fontSize=10;fontColor=#000000;fillColor=none;align=left;fontStyle=1" parent="320" vertex="1">
                    <mxGeometry x="765" y="636" width="191.5" height="49" as="geometry"/>
                </mxCell>
                <mxCell id="313" value="Flow" style="" parent="0"/>
                <mxCell id="314" style="edgeStyle=none;html=1;entryX=0.472;entryY=-0.002;entryDx=0;entryDy=0;entryPerimeter=0;dashed=1;dashPattern=1 1;strokeColor=#7F00FF;fontSize=10;fontColor=#000000;endArrow=none;endFill=0;" parent="313" source="269" edge="1">
                    <mxGeometry relative="1" as="geometry">
                        <mxPoint x="973" y="342" as="sourcePoint"/>
                        <mxPoint x="1016.6560000000002" y="383.904" as="targetPoint"/>
                    </mxGeometry>
                </mxCell>
                <mxCell id="315" style="edgeStyle=none;html=1;dashed=1;dashPattern=1 1;strokeColor=#7F00FF;fontSize=10;fontColor=#000000;endArrow=none;endFill=0;entryX=0.479;entryY=-0.002;entryDx=0;entryDy=0;entryPerimeter=0;" parent="313" edge="1">
                    <mxGeometry relative="1" as="geometry">
                        <mxPoint x="713.0478987983979" y="113.94574805429443" as="sourcePoint"/>
                        <mxPoint x="1016.992" y="383.904" as="targetPoint"/>
                        <Array as="points">
                            <mxPoint x="896" y="322"/>
                        </Array>
                    </mxGeometry>
                </mxCell>
                <mxCell id="316" style="edgeStyle=none;html=1;dashed=1;dashPattern=1 1;strokeColor=#7F00FF;fontSize=10;fontColor=#000000;endArrow=none;endFill=0;" parent="313" edge="1">
                    <mxGeometry relative="1" as="geometry">
                        <mxPoint x="1000.013746064807" y="114.61644192256347" as="sourcePoint"/>
                        <mxPoint x="1016.5286493310211" y="383.9999999999999" as="targetPoint"/>
                    </mxGeometry>
                </mxCell>
                <mxCell id="317" style="edgeStyle=none;html=1;dashed=1;dashPattern=1 1;strokeColor=#7F00FF;fontSize=10;fontColor=#000000;endArrow=none;endFill=0;exitX=0.966;exitY=0.555;exitDx=0;exitDy=0;exitPerimeter=0;" parent="313" source="270" target="272" edge="1">
                    <mxGeometry relative="1" as="geometry">
                        <mxPoint x="723.0478987983979" y="123.94574805429443" as="sourcePoint"/>
                        <mxPoint x="1026.992" y="393.904" as="targetPoint"/>
                    </mxGeometry>
                </mxCell>
                <mxCell id="318" style="edgeStyle=none;html=1;dashed=1;dashPattern=1 1;strokeColor=#7F00FF;fontSize=10;fontColor=#000000;endArrow=none;endFill=0;exitX=0.966;exitY=0.539;exitDx=0;exitDy=0;exitPerimeter=0;entryX=0.031;entryY=0.178;entryDx=0;entryDy=0;entryPerimeter=0;" parent="313" source="270" target="305" edge="1">
                    <mxGeometry relative="1" as="geometry">
                        <mxPoint x="770.9936563371045" y="289.58367018730746" as="sourcePoint"/>
                        <mxPoint x="926.9999999999998" y="373.6443517660307" as="targetPoint"/>
                    </mxGeometry>
                </mxCell>
                <mxCell id="319" style="edgeStyle=none;html=1;dashed=1;dashPattern=1 1;strokeColor=#7F00FF;fontSize=10;fontColor=#000000;endArrow=none;endFill=0;" parent="313" target="293" edge="1">
                    <mxGeometry relative="1" as="geometry">
                        <mxPoint x="735" y="278" as="sourcePoint"/>
                        <mxPoint x="845.2700699999998" y="461.014" as="targetPoint"/>
                    </mxGeometry>
                </mxCell>
                <mxCell id="321" style="edgeStyle=none;html=1;dashed=1;dashPattern=1 1;strokeColor=#7F00FF;fontSize=10;fontColor=#000000;endArrow=none;endFill=0;" parent="313" source="293" target="262" edge="1">
                    <mxGeometry relative="1" as="geometry">
                        <mxPoint x="745" y="288" as="sourcePoint"/>
                        <mxPoint x="404.94374979504846" y="288.52270626208986" as="targetPoint"/>
                    </mxGeometry>
                </mxCell>
            </root>
        </mxGraphModel>
    </diagram>
</mxfile>